<svg xmlns="http://www.w3.org/2000/svg" width="535.926" height="189.191" viewBox="0 0 535.926 189.191"><g transform="translate(-138.041 -125.493)"><path d="M-4105,145.656h0l-78.252-78.343a46.346,46.346,0,0,1-10.089-15.02,45.966,45.966,0,0,1-3.515-17.76A45.151,45.151,0,0,1-4193.2,16.5a47.239,47.239,0,0,1,9.952-14.745A47.249,47.249,0,0,1-4168.5-8.2a45.142,45.142,0,0,1,18.034-3.653,44.33,44.33,0,0,1,13.377,1.872,45.727,45.727,0,0,1,10.865,5.067,64.1,64.1,0,0,1,9.451,7.441c2.981,2.829,6.053,5.886,9.13,9.085l2.649,2.739,2.921-3.012c3.1-3.163,6.16-6.189,9.085-8.995a61.257,61.257,0,0,1,9.359-7.4,44.9,44.9,0,0,1,10.775-4.976,44.894,44.894,0,0,1,13.331-1.826A45.139,45.139,0,0,1-4041.49-8.2a47.238,47.238,0,0,1,14.747,9.953,47.236,47.236,0,0,1,9.952,14.745,45.153,45.153,0,0,1,3.653,18.034,45.976,45.976,0,0,1-3.515,17.76,46.343,46.343,0,0,1-10.089,15.02L-4105,145.656Z" transform="translate(4470.375 150.493)" fill="#e81224" stroke="#e81224" stroke-width="3"/><path d="M98.736-18.513,8.041-58.531v-13.09l90.695-45.254V-95L36.278-66.011,98.736-40.392Z" transform="translate(130 283)" fill="#617692"/><path d="M76.3-133.518,26.554,0H1.309L51.051-133.518Zm8.976,93.126L147.73-66.011,85.272-95v-21.879l90.7,45.254v13.09l-90.7,40.018Z" transform="translate(498 283)" fill="#617692"/><path d="M173.852-157.507a57.708,57.708,0,0,1,15.8,2.146,60.581,60.581,0,0,1,14.2,6.026,59.61,59.61,0,0,1,12.053,9.313,59.611,59.611,0,0,1,9.313,12.053,60.58,60.58,0,0,1,6.026,14.2,57.707,57.707,0,0,1,2.146,15.8,59.014,59.014,0,0,1-4.428,22.827,59.084,59.084,0,0,1-13.011,19.266L128.38,31.684,40.815-55.881A59.083,59.083,0,0,1,27.8-75.147a59.014,59.014,0,0,1-4.428-22.827,58.2,58.2,0,0,1,2.146-15.842,60.658,60.658,0,0,1,5.981-14.2,59.116,59.116,0,0,1,9.313-12.053,59.116,59.116,0,0,1,12.053-9.313,60.657,60.657,0,0,1,14.2-5.981,58.2,58.2,0,0,1,15.842-2.146,59.462,59.462,0,0,1,13.24,1.415,55.672,55.672,0,0,1,11.733,4.063,60.21,60.21,0,0,1,10.592,6.529,93.953,93.953,0,0,1,9.907,8.811,93.951,93.951,0,0,1,9.907-8.811,62.349,62.349,0,0,1,10.592-6.574,52.438,52.438,0,0,1,11.733-4.063A61.365,61.365,0,0,1,173.852-157.507ZM128.38,13.148l78.251-78.343a46.137,46.137,0,0,0,10.09-15.02,45.761,45.761,0,0,0,3.515-17.76,44.943,44.943,0,0,0-3.652-18.033,47.032,47.032,0,0,0-9.953-14.746,47.032,47.032,0,0,0-14.746-9.953,44.944,44.944,0,0,0-18.033-3.652,44.682,44.682,0,0,0-13.331,1.826,44.63,44.63,0,0,0-10.774,4.976,60.893,60.893,0,0,0-9.359,7.4q-4.428,4.246-9.085,8.994l-2.922,3.013-2.648-2.739q-4.657-4.839-9.131-9.085a63.837,63.837,0,0,0-9.45-7.442,45.515,45.515,0,0,0-10.866-5.068,44.113,44.113,0,0,0-13.377-1.872,44.944,44.944,0,0,0-18.033,3.652,47.033,47.033,0,0,0-14.746,9.953,47.032,47.032,0,0,0-9.953,14.746,44.943,44.943,0,0,0-3.652,18.033,45.76,45.76,0,0,0,3.515,17.76,46.137,46.137,0,0,0,10.09,15.02Z" transform="translate(237 283)"/><path d="M-4178.738,46.284l-29.7-29.7c-1.653-1.653-3.055-5.252-3.55-9.243A9.023,9.023,0,0,1-4212.3,5V-13a9,9,0,0,1,9-9,9,9,0,0,1,9,9V4.987l.031.088a9.805,9.805,0,0,0,.483,1.079l27.771,27.4a9,9,0,0,1,0,12.728,8.971,8.971,0,0,1-6.364,2.636A8.972,8.972,0,0,1-4178.738,46.284Z" transform="translate(4511.295 188)" fill="#ef6950"/></g></svg>